<svg width="44" height="44" viewBox="0 0 30 30" fill="none" xmlns="http://www.w3.org/2000/svg">
<path d="M15.3365 24.6996C9.85633 24.6996 5.41358 20.3568 5.41358 15C5.41358 9.64313 9.85633 5.30036 15.3365 5.30036C18.6642 5.30036 21.6125 6.90319 23.4117 9.36183L25.3223 7.92218C23.0778 4.90327 19.4382 2.93649 15.3365 2.93649C8.53089 2.93649 2.99506 8.35008 2.99506 15.0002C2.99506 21.6527 8.53089 27.064 15.3365 27.064C19.4189 27.064 23.0466 25.1161 25.2934 22.1208L23.4143 20.6337C21.6148 23.0945 18.6669 24.6996 15.3365 24.6996Z" fill="#231F20"/>
<path d="M15.3441 26.9652C8.58317 26.9652 3.10465 21.6077 3.10465 14.9988C3.10465 8.39234 8.58317 3.03478 15.3441 3.03478C19.4184 3.03478 23.0293 4.98171 25.2528 7.97448L27.7078 6.12326C24.9112 2.41149 20.4095 0 15.3441 0C6.88277 0 0 6.72788 0 14.9988C0 23.2698 6.88277 30 15.3441 30C20.3641 30 24.83 27.6305 27.6338 23.9748L25.2241 22.0675C22.9959 25.037 19.3993 26.9652 15.3441 26.9652Z" fill="#1377BC"/>
<path d="M30 17.1664L29.2542 22.217L25.12 19.0669L30 17.1664Z" fill="#1377BC"/>
</svg>
